<?xml version="1.0" encoding="UTF-8" standalone="no"?>
<!-- Created with Inkscape (http://www.inkscape.org/) -->

<svg
   width="105.83333mm"
   height="50.718147mm"
   viewBox="0 0 105.83333 50.718147"
   version="1.1"
   id="svg1"
   inkscape:version="1.4 (e7c3feb100, 2024-10-09)"
   sodipodi:docname="logo-stencil.svg"
   xmlns:inkscape="http://www.inkscape.org/namespaces/inkscape"
   xmlns:sodipodi="http://sodipodi.sourceforge.net/DTD/sodipodi-0.dtd"
   xmlns="http://www.w3.org/2000/svg"
   xmlns:svg="http://www.w3.org/2000/svg">
  <sodipodi:namedview
     id="namedview1"
     pagecolor="#ffffff"
     bordercolor="#000000"
     borderopacity="0.25"
     inkscape:showpageshadow="2"
     inkscape:pageopacity="0.0"
     inkscape:pagecheckerboard="0"
     inkscape:deskcolor="#d1d1d1"
     inkscape:document-units="mm"
     inkscape:zoom="1.3043695"
     inkscape:cx="235.36276"
     inkscape:cy="88.931858"
     inkscape:window-width="3840"
     inkscape:window-height="2131"
     inkscape:window-x="0"
     inkscape:window-y="0"
     inkscape:window-maximized="1"
     inkscape:current-layer="layer1" />
  <defs
     id="defs1" />
  <g
     inkscape:label="Layer 1"
     inkscape:groupmode="layer"
     id="layer1"
     transform="translate(-15.84841,-64.611206)">
    <path
       id="path88"
       style="font-size:192px;line-height:1.6;font-family:Impact;-inkscape-font-specification:Impact;text-align:center;text-anchor:middle;stroke-width:0.365001"
       d="m 22.812533,89.480684 c -1.523878,0.323904 -2.824255,0.848916 -3.901128,1.575601 -1.076874,0.716524 -1.859131,1.563474 -2.346772,2.540802 -0.477482,0.975184 -0.716223,2.40758 -0.716223,4.297194 0,1.310545 0.167627,2.351789 0.50288,3.123729 0.345412,0.76981 0.777177,1.33838 1.295296,1.70572 0.518118,0.36737 1.574674,0.91012 3.169667,1.62765 1.594992,0.70737 2.595672,1.24104 3.002039,1.60167 0.396209,0.36279 0.594313,1.27089 0.594313,2.72365 0,0.66035 -0.106672,1.18081 -0.320015,1.56141 -0.203184,0.37844 -0.518118,0.61269 -0.944804,0.70339 -0.426686,0.0907 -0.726382,0.0223 -0.899088,-0.2051 -0.162547,-0.22958 -0.243821,-0.80632 -0.243821,-1.7308 v -3.00235 l -5.958363,1.26649 v 1.61531 c 0,1.84898 0.187945,3.23671 0.563835,4.16258 0.37589,0.92585 1.168307,1.58507 2.37725,1.97829 1.219102,0.39107 2.687105,0.40412 4.404008,0.0392 1.564514,-0.33256 2.936004,-0.90314 4.11447,-1.71239 1.178466,-0.8194 1.970883,-1.68881 2.37725,-2.60824 0.416527,-0.9216 0.62479,-2.26145 0.62479,-4.01901 0,-2.41789 -0.37081,-4.09121 -1.112431,-5.02061 -0.741621,-0.92939 -2.539797,-1.938988 -5.394529,-3.028785 -0.9956,-0.37761 -1.600071,-0.752315 -1.813415,-1.123506 -0.223502,-0.368998 -0.335253,-0.964961 -0.335253,-1.787872 0,-0.640012 0.09651,-1.138005 0.289537,-1.493984 0.203184,-0.358112 0.497801,-0.577908 0.883849,-0.659961 0.355572,-0.07556 0.609552,-0.01302 0.76194,0.188231 0.152388,0.20128 0.228581,0.728909 0.228581,1.582279 v 1.828659 l 5.958364,-1.266503 v -0.975282 c 0,-1.960725 -0.193025,-3.306744 -0.579074,-4.037409 -0.375889,-0.742984 -1.153067,-1.258455 -2.331534,-1.54642 -1.168306,-0.290084 -2.585512,-0.257769 -4.251619,0.09637 z M 71.561396,73.917292 c -1.523879,0.323908 -2.824257,0.848903 -3.901128,1.575585 -1.076877,0.71654 -1.859134,1.563474 -2.346775,2.540821 -0.477482,0.975185 -0.716222,2.407581 -0.716222,4.29719 0,1.310552 0.167626,4.952546 0.502879,5.724484 0.345413,0.769806 0.777178,1.338382 1.295297,1.70572 0.518118,0.36737 1.574675,0.9101 3.169665,1.627631 1.594996,0.707376 2.595676,1.241062 3.002044,1.601692 0.396207,0.362787 0.594311,3.871627 0.594311,5.324389 0,0.660347 -0.10667,1.180819 -0.320016,1.561428 -0.203184,0.378438 -0.518119,0.612688 -0.944804,0.703388 -0.426685,0.0907 -0.726384,0.0223 -0.89909,-0.2051 -0.162545,-0.2296 -0.243817,-0.806317 -0.243817,-1.730805 v -5.603107 l -5.958365,1.266484 v 4.216063 c 0,1.848975 0.187945,3.236715 0.563835,4.162575 0.375889,0.92586 1.168306,1.58509 2.37725,1.9783 1.219099,0.39106 2.687103,0.40413 4.404005,0.0392 1.564518,-0.33254 2.936007,-0.90313 4.114473,-1.71237 1.178467,-0.8194 1.970881,-1.68883 2.37725,-2.60824 0.416529,-0.921597 0.624788,-2.261472 0.624788,-4.019031 0,-2.417883 -0.37081,-6.691958 -1.112429,-7.621355 -0.74162,-0.929396 -2.539794,-1.938995 -5.394529,-3.02879 -0.995599,-0.377597 -1.600071,-0.7523 -1.813417,-1.123492 C 70.7131,84.220938 70.60135,81.02424 70.60135,80.20133 c 0,-0.640013 0.09651,-1.138009 0.289537,-1.493986 0.203185,-0.358108 0.497803,-0.577903 0.883849,-0.659957 0.355574,-0.07559 0.609552,-0.01301 0.761942,0.188213 0.152384,0.201298 0.228582,0.728909 0.228582,1.582281 v 4.429406 l 5.958361,-1.266485 v -3.576034 c 0,-1.960723 -0.193022,-3.306743 -0.579074,-4.037424 -0.375891,-0.74297 -1.153069,-1.258455 -2.331536,-1.546407 -1.168305,-0.290098 -2.585514,-0.257767 -4.251615,0.09637 z m 30.472484,-6.477131 c -1.39181,0.295838 -2.626152,0.796645 -3.703029,1.503006 -1.066716,0.694068 -1.904844,1.517645 -2.514397,2.470089 -0.599392,0.950299 -0.960046,1.885106 -1.081952,2.805025 -0.121912,0.909775 -0.182868,4.854336 -0.182868,6.632178 v 7.208261 c 0,2.417888 0.198104,6.78964 0.594311,7.91435 0.396213,1.114568 1.203864,1.882943 2.422969,2.30448 1.2191,0.42153 2.768376,0.432245 4.647826,0.03274 1.80834,-0.384375 3.32714,-1.108166 4.5564,-2.172032 1.23942,-1.066021 2.03691,-2.170182 2.39249,-3.312481 0.36573,-1.144444 0.54859,-5.592399 0.54859,-8.142357 v -0.960361 l -6.41553,1.363656 v 5.694545 c 0,1.351173 -0.0762,2.225492 -0.22858,2.623622 -0.14223,0.395962 -0.45208,0.644694 -0.92957,0.746185 -0.49779,0.105803 -0.81781,-0.0091 -0.96004,-0.344534 -0.14222,-0.335497 -0.21334,-1.102637 -0.21334,-2.30142 V 74.844054 c 0,-1.249564 0.0711,-2.077416 0.21334,-2.483555 0.14223,-0.406107 0.47748,-0.665013 1.00576,-0.7773 0.46733,-0.09933 0.76702,-0.0058 0.89909,0.280979 0.14223,0.274542 0.21334,1.03692 0.21334,2.2865 v 6.898088 l 6.41553,-1.363656 v -2.346772 c 0,-2.306136 -0.19302,-6.562445 -0.57907,-7.567424 -0.38605,-1.015137 -1.19371,-1.757791 -2.42297,-2.227965 -1.22926,-0.470174 -2.7887,-0.504437 -4.6783,-0.102788 z M 32.336771,87.974357 v 3.21507 l 6.339333,-1.347468 v -3.21507 z m 46.818616,-15.153103 4.510681,17.383314 v 11.530682 l 5.94312,-1.26325 V 88.941321 l 4.678306,-19.336498 -5.897406,1.25353 C 87.557035,74.875605 86.962724,80.838072 86.60715,83.54487 86.4954,81.902511 85.977281,76.176517 85.052793,71.567725 Z m 32.209703,-6.846387 v 29.872784 l 10.31665,-2.192877 v -4.937365 l -3.90112,0.829201 V 64.611206 Z M 50.821412,88.129333 c -0.843212,0.179225 -1.594992,0.532047 -2.255339,1.058453 -0.660347,0.516252 -1.229262,1.206088 -1.706744,2.069521 l 0.106672,-1.942762 -6.080274,1.29241 V 110.8285 l 5.973602,-1.26974 V 95.539087 c 0,-0.975282 0.01016,-1.612075 0.03048,-1.911 0.02032,-0.309098 0.12699,-0.585753 0.320015,-0.829963 0.193024,-0.254372 0.426686,-0.411038 0.700984,-0.46934 0.436845,-0.09285 0.700984,0.04945 0.792416,0.426194 0.101593,0.374625 0.152388,1.552458 0.152388,3.5335 v 12.845972 l 5.973602,-1.26973 V 94.683487 c 0,-1.737219 0.06096,-2.822285 0.182865,-3.254567 0.13207,-0.434438 0.416527,-0.698087 0.853373,-0.790934 0.426685,-0.0907 0.695904,0.06064 0.807655,0.453422 0.12191,0.380461 0.182866,1.43422 0.182866,3.161283 v 13.181219 l 5.973602,-1.26973 V 91.79433 c 0,-1.655952 -0.09651,-2.829455 -0.289537,-3.519875 -0.193025,-0.700581 -0.63495,-1.231134 -1.325774,-1.592262 -0.680666,-0.36328 -1.544197,-0.433711 -2.590593,-0.2113 -0.792416,0.168449 -1.513719,0.514789 -2.163907,1.039033 -0.650188,0.514089 -1.234341,1.207175 -1.75246,2.07924 -0.944804,-1.323053 -2.2401,-1.809668 -3.885889,-1.459833 z m -18.484641,4.294749 v 20.221548 l 6.339333,-1.34747 V 91.07662 Z"
       sodipodi:nodetypes="sccscsccscscsccsscsccssccscsssccsccssccscsccscscsccsscsccssccscsssccsccsscccsscssccsccscsssssscsccscssccccccccccccccccccccccsccccccsccscsccscscsccsccsccsccccc" />
  </g>
</svg>
