<?xml version="1.0" encoding="UTF-8" standalone="no"?>
<!-- Created with Inkscape (http://www.inkscape.org/) -->

<svg
   width="158.75mm"
   height="81.808052mm"
   viewBox="0 0 158.75 81.808052"
   version="1.1"
   id="svg1"
   inkscape:version="1.4 (e7c3feb100, 2024-10-09)"
   sodipodi:docname="logo-dark.svg"
   xmlns:inkscape="http://www.inkscape.org/namespaces/inkscape"
   xmlns:sodipodi="http://sodipodi.sourceforge.net/DTD/sodipodi-0.dtd"
   xmlns:xlink="http://www.w3.org/1999/xlink"
   xmlns="http://www.w3.org/2000/svg"
   xmlns:svg="http://www.w3.org/2000/svg">
  <sodipodi:namedview
     id="namedview1"
     pagecolor="#ffffff"
     bordercolor="#000000"
     borderopacity="0.25"
     inkscape:showpageshadow="2"
     inkscape:pageopacity="0.0"
     inkscape:pagecheckerboard="0"
     inkscape:deskcolor="#d1d1d1"
     inkscape:document-units="mm"
     inkscape:zoom="1.082462"
     inkscape:cx="278.06981"
     inkscape:cy="-123.79187"
     inkscape:window-width="3840"
     inkscape:window-height="2131"
     inkscape:window-x="0"
     inkscape:window-y="0"
     inkscape:window-maximized="1"
     inkscape:current-layer="g3" />
  <defs
     id="defs1">
    <linearGradient
       inkscape:collect="always"
       xlink:href="#linearGradient66"
       id="linearGradient57"
       x1="1431.3895"
       y1="2837.4124"
       x2="1426.8171"
       y2="2551.6636"
       gradientUnits="userSpaceOnUse"
       gradientTransform="matrix(0.09378746,-0.0258824,0,0.09659444,-76.43051,-127.47314)" />
    <linearGradient
       id="linearGradient66"
       inkscape:collect="always">
      <stop
         style="stop-color:#ca49ff;stop-opacity:1;"
         offset="0"
         id="stop65" />
      <stop
         style="stop-color:#8754ff;stop-opacity:1;"
         offset="0.81980598"
         id="stop66" />
    </linearGradient>
    <linearGradient
       inkscape:collect="always"
       xlink:href="#linearGradient42"
       id="linearGradient59"
       x1="2115.0217"
       y1="2829.1936"
       x2="2123.4014"
       y2="2555.6272"
       gradientUnits="userSpaceOnUse"
       gradientTransform="matrix(0.09432608,-0.02573461,0,0.09604286,-76.43051,-127.47314)" />
    <linearGradient
       id="linearGradient42"
       inkscape:collect="always">
      <stop
         style="stop-color:#fc5900;stop-opacity:1;"
         offset="0"
         id="stop41" />
      <stop
         style="stop-color:#fddf00;stop-opacity:1;"
         offset="1"
         id="stop42" />
    </linearGradient>
  </defs>
  <g
     inkscape:label="Layer 1"
     inkscape:groupmode="layer"
     id="layer1"
     transform="translate(-27.906472,-41.67041)">
    <g
       id="g3"
       transform="matrix(1.0101061,0,0,1.0101061,-0.27132929,-0.42112428)"
       style="stroke-width:0.989995">
      <g
         id="g4"
         transform="matrix(1.0067095,0,0,1.0067095,-0.18716787,-0.27958827)"
         style="stroke-width:0.983397">
        <g
           id="g1"
           style="stroke-width:0.983397">
          <path
             d="m 49.541462,93.488842 -8.326985,2.297987 v -2.632083 c 0,-1.228301 -0.106483,-1.981227 -0.319449,-2.258777 -0.212966,-0.277551 -0.567908,-0.347759 -1.064825,-0.210626 -0.539516,0.148889 -0.951252,0.489168 -1.235209,1.020837 -0.269758,0.527749 -0.404637,1.252238 -0.404637,2.173465 0,1.184435 0.156175,2.033317 0.468525,2.546648 0.298156,0.517248 1.142922,1.007943 2.534296,1.472086 3.989568,1.340989 6.502571,2.650781 7.539011,3.929381 1.036432,1.27861 1.554649,3.65801 1.554649,7.1382 0,2.52973 -0.291054,4.47444 -0.873162,5.83414 -0.567908,1.35579 -1.675332,2.67037 -3.32227,3.94374 -1.646939,1.25875 -3.563636,2.18982 -5.75009,2.79321 -2.399421,0.66217 -4.450993,0.76041 -6.154717,0.29473 -1.689537,-0.46959 -2.796963,-1.35572 -3.322279,-2.65839 -0.525316,-1.30268 -0.787974,-3.28468 -0.787974,-5.946 v -2.32501 l 8.326984,-2.29799 v 4.32101 c 0,1.33066 0.113579,2.15474 0.340739,2.47224 0.241365,0.31358 0.660198,0.38809 1.256499,0.22353 0.596306,-0.16457 1.036438,-0.5273 1.320396,-1.08821 0.29815,-0.56483 0.447225,-1.32248 0.447225,-2.27295 0,-2.09104 -0.276855,-3.38186 -0.830563,-3.87245 -0.567914,-0.48667 -1.966395,-1.1755 -4.195441,-2.06649 -2.229046,-0.90561 -3.705611,-1.60214 -4.429693,-2.08959 -0.724084,-0.48743 -1.327487,-1.27138 -1.810211,-2.35185 -0.468525,-1.08439 -0.702787,-2.569742 -0.702787,-4.456065 0,-2.719816 0.333646,-4.800575 1.000938,-6.242276 0.68149,-1.445621 1.774717,-2.727039 3.279681,-3.844256 1.504957,-1.131826 3.322267,-1.991599 5.45193,-2.57932 2.32843,-0.642573 4.309017,-0.801655 5.941763,-0.477246 1.646939,0.320499 2.733067,1.000484 3.258383,2.039955 0.539515,1.020921 0.809273,2.942468 0.809273,5.764642 z M 61.177957,79.385304 v 4.628071 L 52.31856,86.458291 V 81.83022 Z m 0,6.404723 v 29.106433 l -8.859397,2.44492 V 88.234943 Z m 11.061485,-3.197196 -0.149075,2.804832 c 0.667292,-1.280852 1.462366,-2.319137 2.385222,-3.114855 0.922856,-0.810342 1.973488,-1.378115 3.151896,-1.703319 2.300037,-0.634738 4.11025,-0.0376 5.43064,1.791417 0.724089,-1.296527 1.540459,-2.34069 2.449109,-3.132487 0.908657,-0.806423 1.916697,-1.362442 3.02412,-1.668056 1.462371,-0.403569 2.669181,-0.371046 3.62043,0.09757 0.965448,0.464703 1.583051,1.193558 1.852809,2.186565 0.269757,0.97839 0.404636,2.659335 0.404636,5.042835 V 105.5811 l -8.348283,2.30386 V 88.912049 c 0,-2.485858 -0.08518,-3.997732 -0.255552,-4.535621 -0.156175,-0.55643 -0.532416,-0.752364 -1.128723,-0.587802 -0.610506,0.168481 -1.008043,0.570641 -1.19261,1.206481 -0.170375,0.631923 -0.255562,2.198126 -0.255562,4.698608 v 18.972915 l -8.348274,2.30386 V 92.480125 c 0,-2.851423 -0.07099,-4.542688 -0.212963,-5.073794 -0.127782,-0.535017 -0.496923,-0.718286 -1.107424,-0.549807 -0.38334,0.10579 -0.709889,0.349444 -0.979647,0.730963 -0.269758,0.3669 -0.418836,0.773609 -0.447235,1.220127 -0.02839,0.431891 -0.04259,1.349724 -0.04259,2.753499 v 20.179297 l -8.348274,2.30386 V 84.937833 Z"
             id="text45"
             style="font-size:465.046px;line-height:1.6;font-family:Impact;-inkscape-font-specification:Impact;text-align:center;text-anchor:middle;fill:#564590;fill-opacity:1;stroke-width:0.35894"
             aria-label="Sim"
             sodipodi:nodetypes="ccssscsccssccscssccscscsccscsccsccsccccccccccccccsccsccsccscscsccscsccscccc" />
          <path
             d="m 47.637852,92.156304 -8.326976,2.297985 v -2.632083 c 0,-1.228308 -0.106483,-1.981237 -0.319449,-2.258787 -0.212966,-0.277551 -0.567911,-0.347758 -1.064835,-0.210623 -0.53951,0.148887 -0.951243,0.489165 -1.235199,1.020833 -0.269758,0.52775 -0.404637,1.252239 -0.404637,2.173466 0,1.184435 0.156175,2.033317 0.468525,2.546648 0.298156,0.517248 1.142922,1.007943 2.534296,1.472086 3.989568,1.340989 6.502572,2.650782 7.539012,3.929381 1.036432,1.27861 1.554649,3.65801 1.554649,7.1382 0,2.52973 -0.291054,4.47444 -0.873162,5.83414 -0.567908,1.35579 -1.675332,2.67037 -3.32227,3.94374 -1.64694,1.25875 -3.563637,2.18982 -5.750091,2.79321 -2.399421,0.66217 -4.450997,0.76041 -6.154727,0.29474 -1.689531,-0.46959 -2.796955,-1.35573 -3.322271,-2.6584 -0.525316,-1.30268 -0.787974,-3.28468 -0.787974,-5.946 v -2.325 l 8.326976,-2.29799 v 4.321 c 0,1.33066 0.113583,2.15474 0.340749,2.47225 0.241365,0.31358 0.660198,0.38809 1.256499,0.22353 0.596306,-0.16457 1.036438,-0.52731 1.320396,-1.08822 0.29815,-0.56483 0.447225,-1.32248 0.447225,-2.27295 0,-2.09104 -0.276858,-3.38186 -0.830572,-3.87245 -0.567908,-0.48667 -1.966386,-1.1755 -4.195432,-2.06649 -2.229047,-0.90561 -3.705612,-1.60214 -4.429694,-2.08959 -0.724084,-0.48743 -1.327487,-1.27138 -1.810211,-2.35185 -0.468531,-1.084386 -0.702796,-2.56974 -0.702796,-4.456062 0,-2.719816 0.333648,-4.800576 1.000946,-6.242279 0.681491,-1.445621 1.774718,-2.727036 3.279682,-3.844246 1.504957,-1.131833 3.322267,-1.991609 5.451931,-2.57933 2.32843,-0.642573 4.309014,-0.801651 5.941754,-0.477233 1.646939,0.320493 2.73307,1.000473 3.258393,2.039942 0.539508,1.020923 0.809263,2.942474 0.809263,5.764654 z M 59.274358,78.052753 v 4.628072 L 50.41496,85.125741 V 80.49767 Z m 0,6.404724 v 29.106433 l -8.859398,2.44492 V 86.902393 Z m 11.061487,-3.197196 -0.149075,2.804832 c 0.667291,-1.280853 1.462365,-2.319138 2.385221,-3.114855 0.92285,-0.810341 1.973482,-1.378114 3.151897,-1.703319 2.300037,-0.634738 4.110251,-0.0376 5.430641,1.791417 0.724083,-1.296525 1.540452,-2.340688 2.449109,-3.132487 0.908657,-0.806423 1.916697,-1.362442 3.02412,-1.668057 1.462372,-0.403569 2.669182,-0.371042 3.620431,0.09758 0.965448,0.464697 1.583048,1.193553 1.852799,2.186569 0.269758,0.978383 0.404637,2.659324 0.404637,5.042824 v 20.683765 l -8.348275,2.30386 V 87.579498 c 0,-2.485857 -0.08519,-3.99773 -0.255562,-4.535617 -0.156175,-0.55643 -0.532412,-0.752365 -1.128713,-0.587805 -0.610507,0.168481 -1.008044,0.570641 -1.192611,1.206481 -0.170374,0.631929 -0.255561,2.198132 -0.255561,4.698608 v 18.972915 l -8.348275,2.30386 V 91.147574 c 0,-2.851423 -0.07099,-4.542683 -0.212973,-5.073781 -0.127776,-0.535025 -0.496917,-0.718297 -1.107423,-0.549817 -0.383335,0.105789 -0.709881,0.349442 -0.979639,0.730961 -0.269757,0.3669 -0.418835,0.773609 -0.447234,1.220127 -0.02839,0.431891 -0.04259,1.349728 -0.04259,2.753509 v 20.179287 l -8.348275,2.30386 V 83.605283 Z"
             id="text43"
             style="font-size:465.046px;line-height:1.6;font-family:Impact;-inkscape-font-specification:Impact;text-align:center;text-anchor:middle;fill:url(#linearGradient57);stroke-width:0.35894"
             aria-label="Sim"
             sodipodi:nodetypes="ccssscsccssccscssccscscsccscsccsccsccccccccccccccsccsccsccscscsccscsccscccc" />
        </g>
        <g
           id="g2"
           style="stroke-width:0.983397">
          <path
             id="path46"
             style="fill:#7a2500;fill-opacity:1;stroke:none;stroke-width:0.35894;stroke-opacity:1"
             d="m 168.67821,41.67041 -8.93657,2.43807 v 7.95074 l -4.64032,-3.855366 c -0.24926,-0.231432 -0.5309,-0.439734 -0.84139,-0.627411 l -0.0569,-0.04239 -0.008,0.0026 c -0.39161,-0.22969 -0.82515,-0.42955 -1.31153,-0.591538 -1.71229,-0.570265 -3.8844,-0.496329 -6.51652,0.22178 -1.93872,0.528938 -3.65813,1.336745 -5.15816,2.423203 -1.48587,1.068193 -2.65328,2.301581 -3.50235,3.700336 -0.0113,0.01885 -0.0193,0.0373 -0.0305,0.05614 l -2.47591,-2.253848 -8.21472,2.241208 c -0.29039,1.442195 -0.55993,2.824894 -0.80866,4.148351 l -3.83994,-2.879955 -8.2149,2.241017 2.09323,6.866948 -4.61097,-3.847381 c -0.13948,-0.120918 -0.2882,-0.235972 -0.45433,-0.340014 l -0.0126,-0.0095 h -9.5e-4 c -0.54196,-0.33634 -1.22405,-0.58398 -2.04694,-0.742304 -1.62739,-0.319664 -3.6014,-0.162844 -5.9222,0.470335 -2.12268,0.579117 -3.934016,1.426339 -5.434034,2.541617 -1.500027,1.100859 -2.589788,2.363601 -3.269044,3.788074 -0.665113,1.420608 -0.997541,3.470827 -0.997541,6.150865 0,1.858716 0.233478,3.322422 0.700473,4.390948 0.340518,0.753488 0.744359,1.35283 1.205367,1.813638 h -0.0104 l 0.03383,0.02565 c 0.183156,0.180205 0.373365,0.343326 0.575366,0.477759 0.06826,0.04544 0.176332,0.101834 0.258025,0.150956 l 5.591678,4.218433 -8.078461,2.20384 v 2.291026 c 0,2.622387 0.261842,4.575379 0.78543,5.858994 0.247717,0.607271 0.629896,1.119428 1.137332,1.542973 l -0.0026,0.005 0.05075,0.03811 c 0.04329,0.03503 0.09002,0.06758 0.135147,0.10131 l 9.768652,7.327246 c 0.0371,0.0299 0.0771,0.0577 0.11545,0.0866 l 0.17661,0.13255 0.003,-0.007 c 0.50594,0.34466 1.11022,0.61991 1.82553,0.81646 1.69815,0.45887 3.74295,0.36211 6.13451,-0.29037 2.17928,-0.59457 4.08956,-1.51209 5.7311,-2.75243 1.64153,-1.254744 2.74538,-2.550095 3.31143,-3.88605 0.44018,-1.016491 0.71154,-2.368426 0.81777,-4.048516 l 6.5707,5.324907 8.27849,-2.258493 -0.005,-12.536532 c 0.0836,0.07523 -0.34862,0.143142 -0.25878,0.212662 l -0.001,0.0095 9.92127,7.441372 0.008,-0.003 c 0.5047,0.384016 1.1009,0.684406 1.79969,0.891024 1.69814,0.502087 3.85617,0.395989 6.47415,-0.318265 2.51892,-0.687223 4.63452,-1.833502 6.3468,-3.438951 1.4813,-1.380795 2.50595,-2.776028 3.0809,-4.185348 l 3.69188,3.165687 14.37059,-3.920622 V 75.6004 l -5.43403,-4.075481 V 49.093973 Z m -48.72614,34.29773 0.4534,1.487387 v 4.899564 l -5.81577,-4.764979 0.78079,-0.227719 z"
             sodipodi:nodetypes="cccccccssccccccccccccccsccsccccscccsscccccccccsccccccccccsscccccccccccccc" />
          <path
             d="m 113.1444,67.845047 -8.29966,2.264365 v -2.593579 c 0,-1.210333 -0.10613,-1.952243 -0.3184,-2.22573 -0.21227,-0.273492 -0.56606,-0.342674 -1.06135,-0.207545 -0.53774,0.146709 -0.94812,0.482007 -1.23114,1.005893 -0.26887,0.520031 -0.40331,1.23392 -0.40331,2.141666 0,1.167113 0.15566,2.003577 0.46699,2.509392 0.29717,0.509684 1.13916,0.993199 2.52598,1.450546 3.97648,1.321377 6.48124,2.612011 7.51428,3.871902 1.03303,1.259899 1.54955,3.604489 1.54955,7.03377 0,2.492709 -0.2901,4.40897 -0.87029,5.748783 -0.56605,1.335951 -1.66984,2.631297 -3.31138,3.88604 -1.64154,1.240336 -3.55195,2.157787 -5.73123,2.752352 -2.39155,0.652477 -4.436399,0.749285 -6.134536,0.290423 C 96.155913,95.310596 95.052118,94.437427 94.52852,93.153818 94.004929,91.8702 93.743133,89.917195 93.743133,87.294802 V 85.003815 L 102.0428,82.73945 v 4.257781 c 0,1.311197 0.11321,2.123221 0.33963,2.436072 0.24057,0.308998 0.65803,0.38242 1.25238,0.220266 0.59435,-0.162155 1.03304,-0.519586 1.31606,-1.072291 0.29717,-0.556565 0.44576,-1.303133 0.44576,-2.239704 0,-2.060446 -0.27595,-3.332376 -0.82784,-3.81579 -0.56605,-0.479553 -1.95994,-1.158306 -4.18168,-2.036257 -2.221735,-0.892364 -3.693457,-1.578701 -4.415165,-2.059012 -0.721707,-0.480311 -1.323133,-1.252794 -1.804278,-2.317451 -0.46699,-1.068519 -0.700485,-2.53214 -0.700485,-4.390864 0,-2.680031 0.332553,-4.730352 0.997659,-6.150961 0.679261,-1.424471 1.768903,-2.687139 3.268927,-3.788002 1.500023,-1.115275 3.311372,-1.962474 5.434052,-2.541595 2.3208,-0.633175 4.29489,-0.789927 5.92227,-0.470257 1.64154,0.315815 2.72411,0.98585 3.2477,2.010105 0.53774,1.005991 0.80661,2.899427 0.80661,5.68031 z m 22.05613,-16.752291 -6.51662,24.104258 v 12.665277 l -8.27845,2.258575 V 77.455588 l -6.28312,-20.612153 8.21476,-2.241201 c 1.28776,6.464001 2.00948,10.856287 2.16514,13.176857 0.49529,-3.866995 1.32313,-8.682039 2.48353,-14.445134 z m 21.86509,9.149133 -8.93648,2.438103 v -6.0949 c 0,-1.772279 -0.0991,-2.847524 -0.29717,-3.225736 -0.18397,-0.396479 -0.60143,-0.50592 -1.25238,-0.328324 -0.73586,0.200763 -1.20285,0.594733 -1.40096,1.181912 -0.19812,0.587173 -0.29718,1.766895 -0.29718,3.539168 v 16.253064 c 0,1.700234 0.0991,2.782683 0.29718,3.247346 0.19811,0.464663 0.64387,0.602406 1.33727,0.413227 0.6651,-0.181458 1.09672,-0.558571 1.29485,-1.131338 0.21226,-0.576627 0.31839,-1.823121 0.31839,-3.739483 v -4.387469 l 8.93648,-2.438102 v 1.361629 c 0,3.616596 -0.25473,6.250848 -0.76417,7.902756 -0.4953,1.648047 -1.60616,3.276724 -3.3326,4.88603 -1.7123,1.605451 -3.8279,2.751789 -6.34681,3.439014 -2.61797,0.71425 -4.77602,0.820331 -6.47416,0.318244 -1.69814,-0.502094 -2.82316,-1.527969 -3.37506,-3.077625 -0.5519,-1.564069 -0.82784,-4.060744 -0.82784,-7.490025 V 63.086377 c 0,-2.521529 0.0849,-4.43224 0.25472,-5.732133 0.16981,-1.3143 0.67218,-2.668898 1.5071,-4.063793 0.84906,-1.398754 2.01653,-2.632226 3.50241,-3.700416 1.50002,-1.086457 3.21939,-1.894151 5.15811,-2.423083 2.63212,-0.71811 4.80432,-0.79203 6.51662,-0.221759 1.7123,0.570271 2.83732,1.560123 3.37506,2.969557 0.53774,1.395027 0.80662,3.727932 0.80662,6.998717 z m 11.61254,-18.571441 v 27.988983 l 5.43406,-1.482553 v 7.002648 l -14.37054,3.920655 V 44.10855 Z"
             id="text44"
             style="font-size:460.874px;line-height:1.6;font-family:Impact;-inkscape-font-specification:Impact;text-align:center;text-anchor:middle;fill:url(#linearGradient59);stroke-width:0.35894"
             aria-label="SYCL"
             sodipodi:nodetypes="ccssscsccssccscssccscscsccscsccsccscccccccccccccscsssssscsccsccsscsscccsscscccccccc" />
        </g>
      </g>
    </g>
  </g>
</svg>
