<?xml version="1.0" encoding="UTF-8" standalone="no"?>
<!-- Created with Inkscape (http://www.inkscape.org/) -->

<svg
   width="158.75mm"
   height="81.80777mm"
   viewBox="0 0 158.75 81.80777"
   version="1.1"
   id="svg1"
   inkscape:version="1.4 (e7c3feb100, 2024-10-09)"
   sodipodi:docname="logo.svg"
   xmlns:inkscape="http://www.inkscape.org/namespaces/inkscape"
   xmlns:sodipodi="http://sodipodi.sourceforge.net/DTD/sodipodi-0.dtd"
   xmlns:xlink="http://www.w3.org/1999/xlink"
   xmlns="http://www.w3.org/2000/svg"
   xmlns:svg="http://www.w3.org/2000/svg">
  <sodipodi:namedview
     id="namedview1"
     pagecolor="#ffffff"
     bordercolor="#000000"
     borderopacity="0.25"
     inkscape:showpageshadow="2"
     inkscape:pageopacity="0.0"
     inkscape:pagecheckerboard="0"
     inkscape:deskcolor="#d1d1d1"
     inkscape:document-units="mm"
     inkscape:zoom="1.2280892"
     inkscape:cx="-83.055856"
     inkscape:cy="-173.44017"
     inkscape:window-width="3840"
     inkscape:window-height="2131"
     inkscape:window-x="0"
     inkscape:window-y="0"
     inkscape:window-maximized="1"
     inkscape:current-layer="g4" />
  <defs
     id="defs1">
    <linearGradient
       inkscape:collect="always"
       xlink:href="#linearGradient66"
       id="linearGradient57"
       x1="1431.3895"
       y1="2837.4124"
       x2="1426.8171"
       y2="2551.6636"
       gradientUnits="userSpaceOnUse"
       gradientTransform="matrix(0.99531632,-0.27467614,0,1.0251053,-10.96036,-17.950217)" />
    <linearGradient
       id="linearGradient66"
       inkscape:collect="always">
      <stop
         style="stop-color:#b129ce;stop-opacity:1;"
         offset="0"
         id="stop65" />
      <stop
         style="stop-color:#5c28c1;stop-opacity:1;"
         offset="1"
         id="stop66" />
    </linearGradient>
    <linearGradient
       inkscape:collect="always"
       xlink:href="#linearGradient42"
       id="linearGradient59"
       x1="2115.0217"
       y1="2829.1936"
       x2="2123.4014"
       y2="2555.6272"
       gradientUnits="userSpaceOnUse"
       gradientTransform="matrix(1.0010324,-0.27310768,0,1.0192517,-10.96036,-17.950217)" />
    <linearGradient
       id="linearGradient42"
       inkscape:collect="always">
      <stop
         style="stop-color:#fc5900;stop-opacity:1;"
         offset="0"
         id="stop41" />
      <stop
         style="stop-color:#fddf00;stop-opacity:1;"
         offset="1"
         id="stop42" />
    </linearGradient>
  </defs>
  <g
     inkscape:label="Layer 1"
     inkscape:groupmode="layer"
     id="layer1"
     transform="translate(-27.906469,-41.670413)">
    <g
       id="g65"
       transform="matrix(0.0951806,0,0,0.0951806,-76.43051,-127.47314)"
       style="stroke-width:2.7798">
      <g
         id="g4">
        <g
           id="g6"
           transform="matrix(1.0067113,0,0,1.0067113,-7.3569728,-11.926591)"
           style="stroke-width:2.76127">
          <g
             id="g5"
             style="stroke-width:2.76127">
            <g
               id="g2"
               style="stroke-width:2.76127">
              <path
                 d="m 1325.9132,2327.0015 -88.3699,24.3873 v -27.9329 c 0,-13.0353 -1.13,-21.0257 -3.3901,-23.9712 -2.2601,-2.9455 -6.027,-3.6905 -11.3005,-2.2352 -5.7255,1.5801 -10.0951,5.1912 -13.1086,10.8335 -2.8628,5.6007 -4.2942,13.2894 -4.2942,23.0659 0,12.5697 1.6574,21.5785 4.9722,27.0262 3.1642,5.4893 12.1293,10.6968 26.8952,15.6225 42.3391,14.2312 69.0083,28.1313 80.0075,41.7004 10.9991,13.5692 16.4986,38.8205 16.4986,75.7539 0,26.8467 -3.0888,47.4849 -9.2664,61.9147 -6.0269,14.3882 -17.7793,28.3391 -35.2574,41.8527 -17.4781,13.3585 -37.819,23.2394 -61.0227,29.6429 -25.4637,7.0272 -47.236,8.0698 -65.3167,3.1278 -17.9302,-4.9835 -29.6827,-14.3876 -35.2576,-28.2121 -5.5749,-13.8246 -8.3624,-34.8585 -8.3624,-63.1018 v -24.674 l 88.3699,-24.3874 v 45.8566 c 0,14.1216 1.2054,22.8671 3.6161,26.2365 2.5615,3.3279 7.0063,4.1186 13.3345,2.3722 6.3283,-1.7464 10.9992,-5.5959 14.0127,-11.5485 3.1641,-5.9942 4.7462,-14.0347 4.7462,-24.1216 0,-22.1911 -2.9381,-35.8899 -8.8144,-41.0963 -6.0269,-5.1648 -20.8682,-12.475 -44.5239,-21.9305 -23.6557,-9.6108 -39.3257,-17.0027 -47.01,-22.1757 -7.6843,-5.1729 -14.0879,-13.4926 -19.2108,-24.959 -4.9722,-11.508 -7.4583,-27.2713 -7.4583,-47.2898 0,-28.8639 3.5408,-50.9459 10.6224,-66.2459 7.2323,-15.3416 18.8341,-28.9406 34.8055,-40.7971 15.9713,-12.0115 35.2575,-21.1358 57.8584,-27.3729 24.7104,-6.8193 45.7293,-8.5076 63.0568,-5.0648 17.4781,3.4013 29.0046,10.6177 34.5795,21.649 5.7256,10.8345 8.5884,31.2268 8.5884,61.177 z m 123.4919,-149.6733 v 49.1152 l -94.0201,25.9466 v -49.1153 z m 0,67.9699 v 308.891 l -94.0201,25.9466 v -308.891 z m 117.3896,-33.9302 -1.5821,29.7662 c 7.0817,-13.593 15.5194,-24.6118 25.3131,-33.0563 9.7938,-8.5997 20.9436,-14.6252 33.4494,-18.0764 24.4091,-6.7361 43.6199,-0.399 57.6325,19.0114 7.6844,-13.7594 16.3481,-24.8406 25.9911,-33.2435 9.6431,-8.5581 20.3409,-14.4589 32.0934,-17.7022 15.5193,-4.2828 28.3266,-3.9376 38.4217,1.0355 10.2458,4.9317 16.8001,12.6666 19.6629,23.2048 2.8627,10.3831 4.2941,28.2221 4.2941,53.517 v 219.5058 l -88.5958,24.4497 v -201.3495 c 0,-26.3811 -0.904,-42.4258 -2.7121,-48.1341 -1.6574,-5.9051 -5.6502,-7.9845 -11.9785,-6.238 -6.479,1.788 -10.6979,6.0559 -12.6566,12.8037 -1.8081,6.7063 -2.7121,23.3275 -2.7121,49.8638 v 201.3495 l -88.5958,24.4496 v -196.2284 c 0,-30.2606 -0.7533,-48.2091 -2.26,-53.8455 -1.3561,-5.6778 -5.2736,-7.6227 -11.7525,-5.8348 -4.0682,1.1227 -7.5337,3.7085 -10.3965,7.7573 -2.8628,3.8937 -4.4449,8.2099 -4.7463,12.9486 -0.3013,4.5835 -0.452,14.3239 -0.452,29.2214 v 214.1521 l -88.5957,24.4497 v -308.8911 z"
                 id="text45"
                 style="font-size:465.046px;line-height:1.6;font-family:Impact;-inkscape-font-specification:Impact;text-align:center;text-anchor:middle;fill:#828dfb;fill-opacity:1;stroke-width:3.80925"
                 aria-label="Sim"
                 sodipodi:nodetypes="ccssscscccsccscssccscscsccscsccsccsccccccccccccccsccsccsccscscsccscsccscccc" />
              <path
                 d="m 1305.7111,2312.86 -88.3698,24.3872 v -27.9328 c 0,-13.0354 -1.13,-21.0258 -3.3901,-23.9713 -2.2601,-2.9455 -6.027,-3.6906 -11.3005,-2.2353 -5.7255,1.5801 -10.0951,5.1913 -13.1086,10.8336 -2.8628,5.6007 -4.2942,13.2893 -4.2942,23.0658 0,12.5698 1.6574,21.5785 4.9722,27.0262 3.1642,5.4893 12.1293,10.6968 26.8952,15.6225 42.3391,14.2312 69.0083,28.1313 80.0075,41.7004 10.9991,13.5692 16.4987,38.8205 16.4987,75.754 0,26.8466 -3.0888,47.4848 -9.2664,61.9146 -6.0269,14.3882 -17.7794,28.3391 -35.2575,41.8528 -17.4781,13.3584 -37.819,23.2393 -61.0227,29.6428 -25.4637,7.0273 -47.236,8.0699 -65.3168,3.1279 -17.9301,-4.9835 -29.6826,-14.3875 -35.2575,-28.2122 -5.5749,-13.8246 -8.3623,-34.8585 -8.3623,-63.1017 v -24.674 l 88.3697,-24.3873 v 45.8565 c 0,14.1215 1.2054,22.8671 3.6162,26.2366 2.5615,3.3279 7.0063,4.1186 13.3345,2.3722 6.3283,-1.7464 10.9992,-5.596 14.0127,-11.5487 3.1641,-5.9942 4.7462,-14.0347 4.7462,-24.1216 0,-22.1911 -2.9382,-35.8899 -8.8145,-41.0962 -6.0269,-5.1649 -20.8681,-12.4751 -44.5238,-21.9306 -23.6557,-9.6107 -39.3257,-17.0026 -47.01,-22.1756 -7.6843,-5.1729 -14.0879,-13.4926 -19.2108,-24.959 -4.9723,-11.508 -7.4584,-27.2713 -7.4584,-47.2898 0,-28.864 3.5408,-50.946 10.6225,-66.246 7.2323,-15.3416 18.8341,-28.9406 34.8055,-40.7969 15.9713,-12.0115 35.2575,-21.1359 57.8584,-27.3731 24.7104,-6.8193 45.7293,-8.5075 63.0567,-5.0646 17.4781,3.4012 29.0046,10.6175 34.5796,21.6488 5.7255,10.8345 8.5883,31.2269 8.5883,61.1772 z m 123.492,-149.6735 v 49.1152 l -94.0201,25.9466 v -49.1152 z m 0,67.9699 v 308.8911 l -94.0201,25.9466 V 2257.103 Z m 117.3896,-33.9301 -1.582,29.7662 c 7.0816,-13.593 15.5193,-24.6118 25.3131,-33.0563 9.7937,-8.5997 20.9435,-14.6252 33.4494,-18.0765 24.4091,-6.7361 43.6199,-0.399 57.6325,19.0114 7.6843,-13.7593 16.3479,-24.8405 25.991,-33.2434 9.6431,-8.5581 20.3409,-14.4589 32.0934,-17.7022 15.5194,-4.2829 28.3266,-3.9377 38.4217,1.0355 10.2458,4.9316 16.8001,12.6666 19.6628,23.2049 2.8628,10.3831 4.2942,28.222 4.2942,53.5168 v 219.5058 l -88.5958,24.4497 v -201.3494 c 0,-26.3811 -0.904,-42.4258 -2.7121,-48.1341 -1.6574,-5.9051 -5.6502,-7.9845 -11.9785,-6.2381 -6.4789,1.788 -10.6978,6.0559 -12.6565,12.8037 -1.8081,6.7063 -2.7122,23.3276 -2.7122,49.8639 v 201.3494 l -88.5957,24.4497 v -196.2285 c 0,-30.2606 -0.7534,-48.209 -2.2602,-53.8453 -1.356,-5.6779 -5.2735,-7.6229 -11.7525,-5.8349 -4.0681,1.1227 -7.5336,3.7084 -10.3964,7.7573 -2.8628,3.8937 -4.4449,8.2099 -4.7463,12.9485 -0.3013,4.5835 -0.4519,14.324 -0.4519,29.2216 v 214.1519 l -88.5958,24.4497 v -308.8911 z"
                 id="text43"
                 style="font-size:465.046px;line-height:1.6;font-family:Impact;-inkscape-font-specification:Impact;text-align:center;text-anchor:middle;fill:url(#linearGradient57);stroke-width:3.80925"
                 aria-label="Sim"
                 sodipodi:nodetypes="ccssscscccsccscssccscscsccscsccsccsccccccccccccccsccsccsccscscsccscsccscccc" />
            </g>
          </g>
          <g
             id="g3"
             style="stroke-width:2.76127">
            <g
               id="g1"
               style="stroke-width:2.76127">
              <path
                 id="path46"
                 style="fill:#912e08;fill-opacity:1;stroke:none;stroke-width:3.80925;stroke-opacity:1"
                 d="m 2590.2479,1777.0802 -94.839,25.8739 v 84.377 l -49.2453,-40.915 c -2.6453,-2.456 -5.6342,-4.6666 -8.9292,-6.6584 l -0.6037,-0.4499 -0.081,0.027 c -4.1559,-2.4376 -8.7569,-4.5586 -13.9185,-6.2777 -18.1717,-6.0519 -41.2231,-5.2672 -69.1563,2.3537 -20.5747,5.6133 -38.8218,14.1861 -54.7408,25.7161 -15.7688,11.3362 -28.1579,24.4255 -37.1686,39.2697 -0.1197,0.2 -0.2051,0.3959 -0.3236,0.5958 l -26.2754,-23.9189 -87.1784,23.7848 c -3.0817,15.3052 -5.9422,29.979 -8.5819,44.0242 l -40.7512,-30.5634 -87.1804,23.7827 22.2143,72.8752 -48.9337,-40.8302 c -1.4803,-1.2832 -3.0586,-2.5042 -4.8216,-3.6083 l -0.1342,-0.1011 h -0.01 c -5.7515,-3.5694 -12.9902,-6.1974 -21.723,-7.8776 -17.2706,-3.3925 -38.2198,-1.7282 -62.8492,4.9914 -22.5269,6.1458 -41.7496,15.1369 -57.6685,26.9728 -15.919,11.6828 -27.484,25.0836 -34.6926,40.2008 -7.0585,15.0762 -10.5864,36.8341 -10.5864,65.2759 0,19.7255 2.4778,35.2591 7.4338,46.5988 3.6137,7.9963 7.8995,14.3568 12.7919,19.2471 h -0.1104 l 0.359,0.2723 c 1.9437,1.9124 3.9623,3.6435 6.106,5.0702 0.7245,0.4822 1.8713,1.0807 2.7383,1.602 l 59.3414,44.768 -85.7323,23.3881 v 24.3135 c 0,27.83 2.7788,48.556 8.3354,62.1784 2.6288,6.4446 6.6847,11.8799 12.0699,16.3747 l -0.027,0.053 0.5386,0.4045 c 0.4594,0.3717 0.9553,0.7172 1.4342,1.0751 l 103.6695,77.7601 c 0.3932,0.3171 0.8178,0.6123 1.2252,0.9193 l 1.8742,1.4067 0.035,-0.071 c 5.3693,3.6578 11.7823,6.5788 19.3735,8.6647 18.0215,4.8697 39.7219,3.8429 65.1022,-3.0816 23.1276,-6.3098 43.4003,-16.047 60.8211,-29.21 17.4207,-13.3159 29.1353,-27.0628 35.1424,-41.2406 4.6715,-10.7875 7.5513,-25.1348 8.6786,-42.9647 l 69.7314,56.5104 87.8552,-23.9682 v -133.0473 c 0.8872,0.7984 1.8599,1.5191 2.8133,2.2569 l -5.5736,0.101 105.233,78.9713 0.089,-0.031 c 5.3561,4.0753 11.6832,7.2632 19.0992,9.456 18.0214,5.3283 40.9234,4.2024 68.7066,-3.3776 26.7319,-7.2932 49.1836,-19.458 67.3552,-36.4958 15.7202,-14.6536 26.5944,-29.4605 32.6961,-44.4168 l 39.1799,33.5957 152.5074,-41.6075 v -74.3154 l -57.6684,-43.2509 v -238.0484 z m -517.1045,363.9835 4.8117,15.7848 v 51.9965 l -61.7197,-50.5682 8.286,-2.4166 z"
                 sodipodi:nodetypes="cccccccssccccccccccccccsccsccccscccsscccccccccsccccccccccsscccccccccccccc" />
              <path
                 d="m 2000.8971,2054.8577 -88.0799,24.0305 v -27.5243 c 0,-12.8446 -1.1264,-20.7181 -3.379,-23.6205 -2.2527,-2.9024 -6.0072,-3.6366 -11.2635,-2.2025 -5.7068,1.5569 -10.0619,5.1153 -13.0655,10.675 -2.8534,5.5188 -4.2801,13.0949 -4.2801,22.7283 0,12.386 1.652,21.2629 4.9559,26.6309 3.1538,5.409 12.0894,10.5403 26.807,15.3938 42.2002,14.0232 68.7819,27.72 79.745,41.0905 10.963,13.3706 16.4446,38.2525 16.4446,74.6456 0,26.4538 -3.0787,46.7901 -9.2361,61.0088 -6.007,14.1777 -17.721,27.9246 -35.1418,41.2405 -17.4208,13.163 -37.695,22.8994 -60.8225,29.2092 -25.3803,6.9244 -47.0811,7.9517 -65.1026,3.0821 -17.8713,-4.9107 -29.5853,-14.1772 -35.1419,-27.7994 -5.5566,-13.6224 -8.3349,-34.3486 -8.3349,-62.1786 v -24.3131 l 88.0799,-24.0305 v 45.1856 c 0,13.915 1.2015,22.5326 3.6043,25.8527 2.5531,3.2793 6.9834,4.0585 13.2909,2.3376 6.3076,-1.7209 10.9631,-5.5141 13.9667,-11.3796 3.1537,-5.9066 4.7305,-13.8295 4.7305,-23.7688 0,-21.8665 -2.9285,-35.3647 -8.7854,-40.495 -6.0071,-5.0893 -20.7998,-12.2924 -44.3779,-21.6097 -23.5781,-9.4701 -39.1967,-16.7539 -46.8558,-21.8512 -7.6591,-5.0972 -14.0417,-13.2952 -19.1479,-24.5939 -4.9559,-11.3396 -7.4338,-26.8722 -7.4338,-46.5979 0,-28.4417 3.5292,-50.2006 10.5876,-65.2768 7.2086,-15.1172 18.7725,-28.5172 34.6914,-40.2001 15.9189,-11.8358 35.1418,-20.8267 57.6686,-26.9726 24.6294,-6.7195 45.5795,-8.3831 62.85,-4.9906 17.4207,3.3516 28.9095,10.4624 34.4661,21.3322 5.7068,10.676 8.5601,30.7701 8.5601,60.2821 z m 234.0699,-177.7832 -69.1574,255.8057 V 2267.29 l -87.8547,23.9691 v -134.4099 l -66.6795,-218.7458 87.179,-23.7846 c 13.6662,68.599 21.3254,115.2119 22.9774,139.8389 5.2562,-41.0384 14.0416,-92.1379 26.3563,-153.2985 z m 232.0426,97.0949 -94.8381,25.8743 v -64.6819 c 0,-18.8083 -1.0512,-30.2192 -3.1537,-34.2331 -1.9524,-4.2075 -6.3827,-5.369 -13.2908,-3.4843 -7.8094,2.1306 -12.7653,6.3116 -14.8677,12.543 -2.1026,6.2314 -3.1538,18.7512 -3.1538,37.5593 v 172.4851 c 0,18.0437 1.0512,29.5312 3.1538,34.4624 2.1024,4.9312 6.833,6.393 14.1918,4.3853 7.0584,-1.9257 11.6389,-5.9277 13.7415,-12.0063 2.2526,-6.1193 3.3789,-19.3478 3.3789,-39.6851 v -46.5619 l 94.8381,-25.8742 v 14.4502 c 0,38.381 -2.7033,66.337 -8.1097,83.8677 -5.2563,17.49 -17.0454,34.7742 -35.3672,51.8529 -18.1716,17.0378 -40.6234,29.2032 -67.3552,36.4964 -27.7832,7.58 -50.6855,8.7058 -68.7069,3.3773 -18.0215,-5.3283 -29.9607,-16.2155 -35.8176,-32.6612 -5.8571,-16.5985 -8.7855,-43.0944 -8.7855,-79.4876 v -108.4913 c 0,-26.7596 0.901,-47.0369 2.7032,-60.8321 1.802,-13.9479 7.1334,-28.3235 15.9941,-43.1268 9.0107,-14.8442 21.4003,-27.9343 37.1692,-39.2706 15.9189,-11.5299 34.1656,-20.1016 54.7403,-25.7148 27.9332,-7.621 50.9856,-8.4054 69.1574,-2.3535 18.1716,6.0521 30.1108,16.5568 35.8176,31.5144 5.7068,14.8047 8.5603,39.5626 8.5603,74.2736 z m 123.2377,-197.0888 v 297.0321 l 57.6687,-15.7335 v 74.3154 l -152.5068,41.6078 v -371.3475 z"
                 id="text44"
                 style="font-size:460.874px;line-height:1.6;font-family:Impact;-inkscape-font-specification:Impact;text-align:center;text-anchor:middle;fill:url(#linearGradient59);stroke-width:3.80925"
                 aria-label="SYCL"
                 sodipodi:nodetypes="ccssscsccssccscssccscscsccscsccsccscccccccccccccscsssssscsccsccsscsscccsscscccccccc" />
            </g>
          </g>
        </g>
      </g>
    </g>
  </g>
</svg>
